:FULLY-SPECIFIED
:FORCE-ALL-JOINTS-BE-3DOF
:DEGREES
2548
root 4.00084 13.7694 -23.7192 1046.9 87.4249 -34.5158
lfemur -35.9097 1.70006 -14.9424
ltibia 85.9149 -0 0
lfoot -24.0537 30.3409 0.12324
ltoes -45.382 0 0
rfemur -57.2617 -21.2278 11.4014
rtibia 48.7658 -0 0
rfoot 6.2821 4.32554 -0.0303655
rtoes 5.28776 -0 0
lowerback 17.4873 -0.505924 -3.65981
upperback -0.320849 -1.03867 3.1478
thorax -10.0792 -0.183587 5.81183
lowerneck 5.28915 -14.3483 -15.2639
upperneck -0.103809 -20.0958 14.8136
head 2.17248 -10.2029 6.23596
lclavicle -2.07233e-14 1.82882e-14 0
lhumerus -47.8338 -47.0758 112.875
lradius 105.063 0 0
lwrist 79.1487 0 0
lhand 6.91515 400.32 0
lfingers 7.12502 0 0
lthumb 32.1949 -652.514 0
rclavicle -2.07233e-14 1.82882e-14 0
rhumerus 10.5271 -12.1071 -59.4228
rradius 73.6049 0 0
rwrist 13.7639 0 0
rhand -35.4848 -405.463 0
rfingers 7.12502 0 0
rthumb -8.61262 284.732 0
2549
root 3.94602 13.8019 -23.8491 1063.56 86.3371 -17.6461
lfemur -36.0811 1.82191 -15.2997
ltibia 85.5805 -0 0
lfoot -23.5357 30.681 0.0970354
ltoes -45.6581 0 0
rfemur -57.639 -20.9081 12.5628
rtibia 47.8415 -0 0
rfoot 6.80359 4.04894 0
rtoes 4.678 -0 0
lowerback 17.7476 -0.491237 -4.00099
upperback -0.162749 -1.09174 3.16648
thorax -10.0379 -0.193917 6.04836
lowerneck 5.31201 -14.2867 -15.3649
upperneck -0.0311793 -20.0271 14.8521
head 2.19431 -10.1699 6.26569
lclavicle 6.65929e-15 -1.98785e-14 0
lhumerus -46.267 -47.5027 112.378
lradius 104.385 0 0
lwrist 78.6622 0 0
lhand 5.99649 400.39 0
lfingers 7.12502 0 0
lthumb 31.32 -652.27 0
rclavicle 6.65929e-15 -1.98785e-14 0
rhumerus 11.3313 -10.8831 -59.214
rradius 73.9224 0 0
rwrist 9.82427 0 0
rhand -34.3282 -404.485 0
rfingers 7.12502 0 0
rthumb -7.49637 285.668 0
2550
root 3.89319 13.8344 -23.9859 1073.5 85.0017 -7.42388
lfemur -36.2533 1.94269 -15.6573
ltibia 85.2462 -0 0
lfoot -23.0179 31.0208 0.0677582
ltoes -45.9341 0 0
rfemur -58.0086 -20.5815 13.7195
rtibia 46.9173 -0 0
rfoot 6.05005 2.91894 0.151501
rtoes 4.06823 -0 0
lowerback 18.0528 -0.516278 -4.32661
upperback -0.00628117 -1.21048 3.06841
thorax -10.0158 -0.240168 6.16496
lowerneck 5.1318 -14.2786 -15.2805
upperneck 0.320545 -20.0117 14.7351
head 2.30353 -10.1528 6.19413
lclavicle -1.39149e-14 1.19271e-14 0
lhumerus -44.6313 -47.8555 111.658
lradius 103.653 0 0
lwrist 77.9713 0 0
lhand 6.44487 400.445 0
lfingers 7.12502 0 0
lthumb 31.7471 -652.299 0
rclavicle -1.39149e-14 1.19271e-14 0
rhumerus 12.0523 -9.40801 -59.0203
rradius 74.49 0 0
rwrist 5.82131 0 0
rhand -33.3824 -403.884 0
rfingers 7.12502 0 0
rthumb -6.58339 286.238 0
2551
root 3.8419 13.8722 -24.1304 1077.93 83.3645 -2.81795
lfemur -36.4262 2.06239 -16.0153
ltibia 84.9118 -0 0
lfoot -22.5002 31.3603 0.0354118
ltoes -46.2101 0 0
rfemur -58.3702 -20.2479 14.8715
rtibia 45.993 -0 0
rfoot 5.29366 1.78703 0.2881
rtoes 3.45847 -0 0
lowerback 18.2457 -0.517811 -4.66981
upperback 0.16141 -1.28748 3.07361
thorax -9.91986 -0.265828 6.3916
lowerneck 4.85866 -14.2997 -15.423
upperneck 0.777835 -20.0535 14.8342
head 2.51344 -10.1612 6.19559
lclavicle 3.23025e-14 -1.35174e-14 0
lhumerus -42.8242 -48.0732 110.891
lradius 102.847 0 0
lwrist 77.2672 0 0
lhand 5.7094 400.153 0
lfingers 7.12502 0 0
lthumb 31.0464 -652.455 0
rclavicle 3.23025e-14 -1.35174e-14 0
rhumerus 12.9006 -7.90049 -58.869
rradius 75.2194 0 0
rwrist 1.53099 0 0
rhand -32.3304 -402.63 0
rfingers 7.12502 0 0
rthumb -5.56777 287.463 0
2552
root 3.79253 13.9055 -24.2838 1081.98 81.5396 1.29475
lfemur -36.5999 2.18101 -16.3738
ltibia 84.5775 -0 0
lfoot -21.9828 31.6995 0
ltoes -46.4861 0 0
rfemur -58.7238 -19.9076 16.0187
rtibia 45.0687 -0 0
rfoot 4.5347 0.653405 0.409718
rtoes 2.84871 -0 0
lowerback 18.3891 -0.433872 -5.18754
upperback 0.23981 -1.29862 3.01368
thorax -9.90242 -0.250216 6.63162
lowerneck 4.78092 -14.3116 -15.5164
upperneck 1.00835 -20.0839 14.8676
head 2.61155 -10.1724 6.19855
lclavicle -8.64713e-15 -1.63003e-14 0
lhumerus -41.2666 -48.3419 110.292
lradius 102.085 0 0
lwrist 76.5716 0 0
lhand 5.40205 400.378 0
lfingers 7.12502 0 0
lthumb 30.7534 -652.174 0
rclavicle -8.64713e-15 -1.63003e-14 0
rhumerus 13.5259 -6.07874 -58.3917
rradius 76.2495 0 0
rwrist -2.37414 0 0
rhand -31.5374 -402.691 0
rfingers 7.12502 0 0
rthumb -4.80202 287.383 0
2553
root 3.74578 13.9462 -24.4393 1082.89 79.466 2.26501
lfemur -36.7743 2.29854 -16.7326
ltibia 84.2431 -0 0
lfoot -22.3307 31.8384 -0.0101403
ltoes -46.7621 0 0
rfemur -59.0694 -19.5607 17.1611
rtibia 44.1444 -0 0
rfoot 3.77348 -0.481751 0.516287
rtoes 2.23895 -0 0
lowerback 18.3971 -0.298843 -5.26873
upperback 0.360865 -1.1575 2.81727
thorax -9.79558 -0.192928 6.41846
lowerneck 4.90586 -14.4058 -15.2718
upperneck 1.02539 -20.2192 14.9819
head 2.60521 -10.2433 6.19638
lclavicle 2.11706e-14 -1.11319e-14 0
lhumerus -39.9206 -48.9675 109.62
lradius 101.337 0 0
lwrist 75.9974 0 0
lhand 5.37481 399.361 0
lfingers 7.12502 0 0
lthumb 30.7274 -653.186 0
rclavicle 2.11706e-14 -1.11319e-14 0
rhumerus 13.914 -4.4282 -58.1502
rradius 77.5166 0 0
rwrist -5.83071 0 0
rhand -30.8816 -402.993 0
rfingers 7.12502 0 0
rthumb -4.16879 287.068 0
2554
root 3.70024 13.9904 -24.5993 1083.51 77.1642 2.826
lfemur -36.9495 2.41498 -17.0918
ltibia 83.9087 -0 0
lfoot -22.6786 31.9773 -0.0194372
ltoes -47.0381 0 0
rfemur -59.4068 -19.2074 18.2989
rtibia 43.2201 0 0
rfoot 3.01028 -1.61824 0.607746
rtoes 1.62919 -0 0
lowerback 18.4732 -0.154705 -5.55318
upperback 0.37518 -1.0355 2.79104
thorax -9.83679 -0.121206 6.52545
lowerneck 4.88969 -14.4459 -15.411
upperneck 1.11239 -20.2914 15.0951
head 2.6708 -10.2789 6.23406
lclavicle -7.45443e-15 4.77083e-15 0
lhumerus -38.6159 -49.0919 109.058
lradius 100.66 0 0
lwrist 75.2487 0 0
lhand 5.38999 400.033 0
lfingers 7.12502 0 0
lthumb 30.7419 -652.517 0
rclavicle -7.45443e-15 4.77083e-15 0
rhumerus 14.4652 -2.31799 -57.8551
rradius 78.8742 0 0
rwrist -8.32394 0 0
rhand -30.307 -402.805 0
rfingers 7.12502 0 0
rthumb -3.61395 287.246 0
2555
root 3.65516 14.0354 -24.7653 1083.59 74.6572 2.75456
lfemur -37.1254 2.53032 -17.4514
ltibia 83.5744 -0 0
lfoot -23.0266 32.1163 -0.0278901
ltoes -47.3141 0 0
rfemur -59.7361 -18.8479 19.4321
rtibia 45.0781 -0 0
rfoot 2.24541 -2.75587 0.684043
rtoes 1.01942 -0 0
lowerback 18.5157 -0.012518 -5.85612
upperback 0.37661 -0.910408 2.8475
thorax -9.87376 -0.0444394 6.73412
lowerneck 4.82441 -14.4445 -15.5597
upperneck 1.10807 -20.2919 15.1324
head 2.69902 -10.2778 6.25792
lclavicle -7.30534e-14 3.93594e-14 0
lhumerus -37.4048 -48.9987 108.548
lradius 100.061 0 0
lwrist 74.7421 0 0
lhand 5.19809 400.088 0
lfingers 7.12502 0 0
lthumb 30.5589 -652.427 0
rclavicle -7.30534e-14 3.93594e-14 0
rhumerus 15.505 0.0592978 -57.0619
rradius 80.0838 0 0
rwrist -10.384 0 0
rhand -29.4995 -402.322 0
rfingers 7.12502 0 0
rthumb -2.83408 287.717 0
2556
root 3.60577 14.0864 -24.9403 1083.52 71.9333 2.39452
lfemur -37.3021 2.64455 -17.8113
ltibia 83.24 -0 0
lfoot -23.3746 32.2554 -0.0354987
ltoes -47.5902 0 0
rfemur -60.057 -18.4823 20.5606
rtibia 46.9361 -0 0
rfoot 1.47916 -3.89443 0.745133
rtoes 0.40966 -0 0
lowerback 18.5304 0.137109 -6.05231
upperback 0.332434 -0.756319 2.87578
thorax -9.95405 0.0428657 6.84202
lowerneck 4.7305 -14.4346 -15.6074
upperneck 1.02526 -20.2657 15.163
head 2.69365 -10.2625 6.27057
lclavicle -4.72114e-14 5.96354e-15 0
lhumerus -36.3917 -48.8065 108.062
lradius 99.6014 0 0
lwrist 74.46 0 0
lhand 4.961 400.206 0
lfingers 7.12502 0 0
lthumb 30.3328 -652.268 0
rclavicle -4.72114e-14 5.96354e-15 0
rhumerus 16.4676 2.54969 -56.4908
rradius 81.5362 0 0
rwrist -11.7036 0 0
rhand -28.6448 -401.258 0
rfingers 7.12502 0 0
rthumb -2.00871 288.771 0
2557
root 3.56015 14.1369 -25.1132 1083.52 69.0786 2.21086
lfemur -37.4795 2.75767 -18.1717
ltibia 82.9057 -0 0
lfoot -23.7225 32.3944 -0.0422628
ltoes -47.8662 0 0
rfemur -60.3697 -18.1108 21.6846
rtibia 48.7941 -0 0
rfoot 0.711839 -5.03372 0.790982
rtoes -0.200102 0 0
lowerback 18.62 0.269946 -6.37599
upperback 0.335914 -0.654196 2.90559
thorax -10.0146 0.110257 7.04068
lowerneck 4.40711 -14.3742 -15.3666
upperneck 0.97056 -20.124 15.0198
head 2.66789 -10.1789 6.18894
lclavicle 2.56432e-14 -8.74653e-15 0
lhumerus -35.4908 -48.3755 107.53
lradius 99.3295 0 0
lwrist 74.3777 0 0
lhand 4.18795 401.166 0
lfingers 7.12502 0 0
lthumb 29.5951 -651.174 0
rclavicle 2.56432e-14 -8.74653e-15 0
rhumerus 17.5611 5.2344 -56.0677
rradius 83.1595 0 0
rwrist -12.1959 0 0
rhand -27.3371 -399.66 0
rfingers 7.12502 0 0
rthumb -0.745715 290.361 0
